<svg xmlns="http://www.w3.org/2000/svg" viewBox="0 0 77.29 89.24"><defs><style>.cls-1{fill:#e0684b;}.cls-2{fill:#bb464b;}.cls-3{fill:#e0ded8;}.cls-4{fill:#d5d2ca;}.cls-5{fill:#fff;}</style></defs><title>logo_page_smaller</title><g id="Layer_2" data-name="Layer 2"><g id="Page_Logo" data-name="Page Logo"><polygon class="cls-1" points="77.29 22.31 65.19 15.33 53.56 22.05 65.65 29.03 77.29 22.31"/><polygon class="cls-1" points="11.63 29.03 50.28 6.72 38.64 0 0 22.31 11.63 29.03"/><polygon class="cls-1" points="26.55 51.6 38.64 58.59 50.74 51.6 38.64 44.62 26.55 51.6"/><polygon class="cls-2" points="65.65 29.03 65.65 60.21 38.64 75.81 11.63 60.21 11.63 29.03 0 22.31 0 66.93 38.64 89.24 77.29 66.93 77.29 22.31 65.65 29.03"/><polygon class="cls-2" points="38.64 30.66 26.55 37.64 26.55 51.6 38.64 44.62 50.74 51.6 50.74 37.64 38.64 30.66"/><polygon class="cls-3" points="65.65 29.03 50.74 37.64 50.74 51.6 38.64 58.59 38.64 75.81 65.65 60.21 65.65 29.03"/><polygon class="cls-4" points="11.63 29.03 26.55 37.64 26.55 51.6 38.64 58.59 38.64 75.81 11.63 60.21 11.63 29.03"/><polygon class="cls-5" points="50.28 6.72 65.19 15.33 53.56 22.05 65.65 29.03 50.74 37.64 38.64 30.66 26.55 37.64 11.63 29.03 50.28 6.72"/></g></g></svg>